TITLE ""
FILE "2Q_j_1691-1700.mp3" MP3
  TRACK 01 AUDIO
    TITLE "2Q_j_1691-1700_01"
    INDEX 01 00:00:00
  TRACK 02 AUDIO
    TITLE "2Q_j_1691-1700_02"
    INDEX 01 00:00:08
  TRACK 03 AUDIO
    TITLE "2Q_j_1691-1700_03"
    INDEX 01 00:01:69
  TRACK 04 AUDIO
    TITLE "2Q_j_1691-1700_04"
    INDEX 01 00:02:39
  TRACK 05 AUDIO
    TITLE "2Q_j_1691-1700_05"
    INDEX 01 00:04:55
  TRACK 06 AUDIO
    TITLE "2Q_j_1691-1700_06"
    INDEX 01 00:05:25
  TRACK 07 AUDIO
    TITLE "2Q_j_1691-1700_07"
    INDEX 01 00:08:16
  TRACK 08 AUDIO
    TITLE "2Q_j_1691-1700_08"
    INDEX 01 00:08:67
  TRACK 09 AUDIO
    TITLE "2Q_j_1691-1700_09"
    INDEX 01 00:10:19
  TRACK 10 AUDIO
    TITLE "2Q_j_1691-1700_10"
    INDEX 01 00:10:62
  TRACK 11 AUDIO
    TITLE "2Q_j_1691-1700_11"
    INDEX 01 00:13:15
  TRACK 12 AUDIO
    TITLE "2Q_j_1691-1700_12"
    INDEX 01 00:13:60
  TRACK 13 AUDIO
    TITLE "2Q_j_1691-1700_13"
    INDEX 01 00:19:06
  TRACK 14 AUDIO
    TITLE "2Q_j_1691-1700_14"
    INDEX 01 00:19:51
  TRACK 15 AUDIO
    TITLE "2Q_j_1691-1700_15"
    INDEX 01 00:21:03
  TRACK 16 AUDIO
    TITLE "2Q_j_1691-1700_16"
    INDEX 01 00:21:58
  TRACK 17 AUDIO
    TITLE "2Q_j_1691-1700_17"
    INDEX 01 00:23:13
  TRACK 18 AUDIO
    TITLE "2Q_j_1691-1700_18"
    INDEX 01 00:23:58
  TRACK 19 AUDIO
    TITLE "2Q_j_1691-1700_19"
    INDEX 01 00:26:37
  TRACK 20 AUDIO
    TITLE "2Q_j_1691-1700_20"
    INDEX 01 00:27:09
  TRACK 21 AUDIO
    TITLE "2Q_j_1691-1700_21"
    INDEX 01 00:28:28
  TRACK 22 AUDIO
    TITLE "2Q_j_1691-1700_22"
    INDEX 01 00:29:00
  TRACK 23 AUDIO
    TITLE "2Q_j_1691-1700_23"
    INDEX 01 00:30:25
  TRACK 24 AUDIO
    TITLE "2Q_j_1691-1700_24"
    INDEX 01 00:30:68
  TRACK 25 AUDIO
    TITLE "2Q_j_1691-1700_25"
    INDEX 01 00:34:43
  TRACK 26 AUDIO
    TITLE "2Q_j_1691-1700_26"
    INDEX 01 00:35:15
  TRACK 27 AUDIO
    TITLE "2Q_j_1691-1700_27"
    INDEX 01 00:36:34
  TRACK 28 AUDIO
    TITLE "2Q_j_1691-1700_28"
    INDEX 01 00:37:04
  TRACK 29 AUDIO
    TITLE "2Q_j_1691-1700_29"
    INDEX 01 00:41:07
  TRACK 30 AUDIO
    TITLE "2Q_j_1691-1700_30"
    INDEX 01 00:41:50
  TRACK 31 AUDIO
    TITLE "2Q_j_1691-1700_31"
    INDEX 01 00:43:73
  TRACK 32 AUDIO
    TITLE "2Q_j_1691-1700_32"
    INDEX 01 00:44:49
  TRACK 33 AUDIO
    TITLE "2Q_j_1691-1700_33"
    INDEX 01 00:45:68
  TRACK 34 AUDIO
    TITLE "2Q_j_1691-1700_34"
    INDEX 01 00:46:38
  TRACK 35 AUDIO
    TITLE "2Q_j_1691-1700_35"
    INDEX 01 00:48:50
  TRACK 36 AUDIO
    TITLE "2Q_j_1691-1700_36"
    INDEX 01 00:49:21
  TRACK 37 AUDIO
    TITLE "2Q_j_1691-1700_37"
    INDEX 01 00:53:09
  TRACK 38 AUDIO
    TITLE "2Q_j_1691-1700_38"
    INDEX 01 00:53:54
  TRACK 39 AUDIO
    TITLE "2Q_j_1691-1700_39"
    INDEX 01 00:54:53
  TRACK 40 AUDIO
    TITLE "2Q_j_1691-1700_40"
    INDEX 01 00:55:33
  TRACK 41 AUDIO
    TITLE "2Q_j_1691-1700_41"
    INDEX 01 00:59:27
  TRACK 42 AUDIO
    TITLE "2Q_j_1691-1700_42"
    INDEX 01 00:59:72
  TRACK 43 AUDIO
    TITLE "2Q_j_1691-1700_43"
    INDEX 01 01:03:25
  TRACK 44 AUDIO
    TITLE "2Q_j_1691-1700_44"
    INDEX 01 01:04:01
  TRACK 45 AUDIO
    TITLE "2Q_j_1691-1700_45"
    INDEX 01 01:05:25
  TRACK 46 AUDIO
    TITLE "2Q_j_1691-1700_46"
    INDEX 01 01:06:05
  TRACK 47 AUDIO
    TITLE "2Q_j_1691-1700_47"
    INDEX 01 01:08:71
  TRACK 48 AUDIO
    TITLE "2Q_j_1691-1700_48"
    INDEX 01 01:09:41
  TRACK 49 AUDIO
    TITLE "2Q_j_1691-1700_49"
    INDEX 01 01:12:45
  TRACK 50 AUDIO
    TITLE "2Q_j_1691-1700_50"
    INDEX 01 01:13:21
  TRACK 51 AUDIO
    TITLE "2Q_j_1691-1700_51"
    INDEX 01 01:14:28
  TRACK 52 AUDIO
    TITLE "2Q_j_1691-1700_52"
    INDEX 01 01:15:06
  TRACK 53 AUDIO
    TITLE "2Q_j_1691-1700_53"
    INDEX 01 01:17:13
  TRACK 54 AUDIO
    TITLE "2Q_j_1691-1700_54"
    INDEX 01 01:17:60
  TRACK 55 AUDIO
    TITLE "2Q_j_1691-1700_55"
    INDEX 01 01:21:46
  TRACK 56 AUDIO
    TITLE "2Q_j_1691-1700_56"
    INDEX 01 01:22:18
  TRACK 57 AUDIO
    TITLE "2Q_j_1691-1700_57"
    INDEX 01 01:23:39
  TRACK 58 AUDIO
    TITLE "2Q_j_1691-1700_58"
    INDEX 01 01:24:11
  TRACK 59 AUDIO
    TITLE "2Q_j_1691-1700_59"
    INDEX 01 01:27:19
  TRACK 60 AUDIO
    TITLE "2Q_j_1691-1700_60"
    INDEX 01 01:27:62
  TRACK 61 AUDIO
    TITLE "2Q_j_1691-1700_61"
    INDEX 01 01:32:16
